<svg width="16" height="16" fill="none" xmlns="http://www.w3.org/2000/svg"><path d="M2.667 10.667v2.666h2.666v1.334h-4v-4h1.334Zm12 0v4h-4v-1.334h2.666v-2.666h1.334ZM5 4.667a3.001 3.001 0 0 0 2.333 2.926v3.74h1.334V7.592A3.002 3.002 0 0 0 11 4.667h1.333a4.333 4.333 0 0 1-2.332 3.844L10 12.667H6V8.512a4.333 4.333 0 0 1-2.333-3.845H5Zm3-1.334a1.667 1.667 0 1 1 0 3.334 1.667 1.667 0 0 1 0-3.334Zm-2.667-2v1.334l-2.666-.001v2.667H1.333v-4h4Zm9.334 0v4h-1.334V2.667h-2.666V1.333h4Z" fill="#001018"/></svg>