<svg width="16" height="16" viewBox="0 0 16 16" fill="none" xmlns="http://www.w3.org/2000/svg"><path d="M4.663 4.662V1.996a.667.667 0 0 1 .666-.666h8.665a.666.666 0 0 1 .666.666v8.665a.666.666 0 0 1-.667.667h-2.665v2.66c0 .371-.3.672-.672.672H2.001a.67.67 0 0 1-.671-.671l.002-8.655c0-.37.3-.672.671-.672h2.66Zm1.333 0h4.66c.37 0 .671.3.671.672v4.66h2V2.663H5.996v2Zm3.999 1.333h-7.33l-.002 7.332h7.332V5.995Zm-4.33 5.999L3.307 9.637l.942-.942 1.414 1.414 2.828-2.828.942.943-3.77 3.77Z" fill="currentColor"/></svg>