<svg width="16" height="16" fill="none" xmlns="http://www.w3.org/2000/svg"><path d="M8 1.333a6.667 6.667 0 1 1 0 13.333A6.667 6.667 0 0 1 8 1.333Zm0 1.334a5.334 5.334 0 1 0 0 10.667A5.334 5.334 0 0 0 8 2.667Zm2.555 2.224a.397.397 0 0 1 .509.045c.136.136.153.35.042.507-1.453 2.03-2.253 3.118-2.399 3.264a1.001 1.001 0 0 1-1.414-1.414c.249-.249 1.336-1.05 3.262-2.402Zm1.112 2.442a.667.667 0 1 1 0 1.334.667.667 0 0 1 0-1.334Zm-7.334 0a.667.667 0 1 1 0 1.334.667.667 0 0 1 0-1.334ZM5.88 4.936a.667.667 0 1 1-.945.943.667.667 0 0 1 .945-.943ZM8 3.666A.667.667 0 1 1 8 5a.667.667 0 0 1 0-1.333Z" fill="#001018"/></svg>