<svg width="16" height="16" viewBox="0 0 16 16" fill="none" xmlns="http://www.w3.org/2000/svg"><path d="M8 1.333a6.666 6.666 0 1 1 0 13.333A6.666 6.666 0 0 1 8 1.333Zm1.113 9.334H6.887l-.92 1.264.369 1.138a5.347 5.347 0 0 0 3.328 0l.369-1.138-.92-1.264ZM3.53 7.248l-.861.625L2.667 8c0 1.153.366 2.22.988 3.093h1.273L5.81 9.88l-.685-2.113-1.596-.519Zm8.942 0-1.596.519-.685 2.113.881 1.213h1.274c.644-.902.99-1.984.988-3.093l-.002-.127-.86-.625ZM8 6.358 6.437 7.491l.598 1.841h1.93l.597-1.841L8 6.357Zm1.527-3.47-.86.627v1.678l1.796 1.305 1.492-.485.37-1.135a5.342 5.342 0 0 0-2.798-1.99Zm-3.055 0a5.343 5.343 0 0 0-2.797 1.99l.37 1.135 1.492.485 1.796-1.305V3.515l-.861-.626Z" fill="currentColor"/></svg>