<svg width="16" height="16" viewBox="0 0 16 16" fill="none" xmlns="http://www.w3.org/2000/svg"><path d="m6.857 3.525-2.47 2.47 2.47 2.471.943-.942-.862-.862h1.724c.523 0 1.024.176 1.387.502.35.316.612.807.612 1.532 0 .723-.26 1.191-.603 1.488-.358.31-.86.477-1.396.477H5.329v1.333h3.333c.796 0 1.627-.246 2.268-.802.657-.568 1.064-1.415 1.064-2.496 0-1.08-.405-1.94-1.054-2.523-.637-.573-1.468-.844-2.278-.844H6.938l.862-.862-.943-.942Z" fill="currentColor"/><path d="M1.33 1.996c0-.368.298-.666.667-.666h11.996c.369 0 .667.298.667.666v11.998a.666.666 0 0 1-.667.666H1.997a.666.666 0 0 1-.667-.667V1.996Zm1.333.667v10.664h10.664V2.663H2.663Z" fill="currentColor"/></svg>