<svg width="16" height="16" fill="none" xmlns="http://www.w3.org/2000/svg"><path d="M3.667 14a3 3 0 1 1 0-5.999 3 3 0 0 1 0 5.999Zm0-1.333a1.667 1.667 0 1 0 0-3.333 1.667 1.667 0 0 0 0 3.333ZM12.332 14a3 3 0 1 1 0-6 3 3 0 0 1 0 6Zm0-1.333a1.667 1.667 0 1 0 0-3.334 1.667 1.667 0 0 0 0 3.334ZM7.348 6.87 8.666 8v4H7.333V8.667L5.52 7.156a1.334 1.334 0 0 1-.187-2.042l1.885-1.885a1.333 1.333 0 0 1 1.886 0l.943.942a4.646 4.646 0 0 0 2.611 1.317l-.006 1.343a5.975 5.975 0 0 1-3.547-1.716L7.348 6.87Zm3.318-3.537a1.333 1.333 0 1 1 0-2.666 1.333 1.333 0 0 1 0 2.666Z" fill="#001018"/></svg>