<svg width="16" height="16" fill="none" xmlns="http://www.w3.org/2000/svg"><path d="M10.316 9.166c.121-.366.121-.65.08-.732-.026-.054-.071-.072-.147-.102-.037-.015-.082-.033-.136-.06-.163-.081-.894-.447-1.016-.488-.122-.04-.285-.04-.366.122a5.784 5.784 0 0 0-.182.245c-.08.111-.152.212-.224.283-.081.082-.244.122-.366.041-.028-.014-.065-.03-.112-.05-.22-.097-.636-.278-1.106-.681-.354-.322-.606-.694-.756-.916a3.975 3.975 0 0 0-.098-.14c-.08-.163 0-.244.082-.325l.243-.244c.082-.082.122-.122.163-.244.04-.081 0-.203-.04-.284a15.02 15.02 0 0 1-.194-.473c-.091-.228-.193-.482-.254-.624-.08-.203-.162-.203-.325-.203-.04-.041-.121-.041-.162-.041-.203 0-.406.04-.528.203a1.651 1.651 0 0 0-.528 1.26c0 .73.528 1.462.61 1.543.01.01.034.045.073.098.265.363 1.174 1.61 2.485 2.177 1.179.488 1.544.447 1.788.406.406-.121.894-.406 1.016-.771Z" fill="#001018"/><path d="M7.797 5.202a.348.348 0 0 0 0 .696c.336 0 .586.25.586.586a.348.348 0 1 0 .696 0c0-.72-.562-1.282-1.282-1.282ZM7.449 3.031c0-.192.156-.348.348-.348 2.102 0 3.801 1.7 3.801 3.801a.348.348 0 1 1-.696 0A3.102 3.102 0 0 0 7.797 3.38a.348.348 0 0 1-.348-.348Z" fill="#001018"/><path d="M7.797 3.942a.348.348 0 0 0 0 .697c1.026 0 1.845.819 1.845 1.845a.348.348 0 0 0 .697 0 2.533 2.533 0 0 0-2.542-2.542Z" fill="#001018"/><path d="M3.334 1.84C4.604.966 6.298.78 8 .78c1.702 0 3.396.187 4.666 1.06 1.326.91 2.055 2.46 2.055 4.848 0 2.386-.73 3.938-2.055 4.848-1.27.872-2.964 1.06-4.666 1.06h-.918L5.656 14.02l-.027.022-.002.001-.006.005-.02.018a16.605 16.605 0 0 0-.36.331l-.044.042-1.074 1.017v-3.47c-.78-.35-1.462-.874-1.963-1.656-.582-.908-.88-2.104-.88-3.643 0-2.387.728-3.939 2.054-4.849Zm.71 1.033c-.879.603-1.51 1.692-1.51 3.814-.001 1.386.269 2.323.682 2.968.408.636.993 1.049 1.745 1.317l.416.149v1.406l1.185-1.185H8c1.67 0 3.023-.199 3.957-.84.878-.603 1.51-1.692 1.51-3.815 0-2.122-.632-3.211-1.51-3.814-.934-.641-2.288-.84-3.957-.84-1.67 0-3.023.199-3.957.84Z" fill="#001018"/></svg>