<svg width="16" height="16" viewBox="0 0 16 16" fill="none" xmlns="http://www.w3.org/2000/svg"><path d="m5.078 5.808 2.137-1.552A1.33 1.33 0 0 1 8.043 4a1.744 1.744 0 0 1 1.618 1.213c.124.389.238.652.34.788a3.328 3.328 0 0 0 2.666 1.332v1.334a4.657 4.657 0 0 1-3.602-1.698l-.464 2.636 1.374 1.154 1.482 4.072-1.254.456-1.36-3.736-2.26-1.897a1.333 1.333 0 0 1-.475-1.27l.34-1.923-.452.328-1.418 1.952-1.079-.784L5.067 5.8l.011.008ZM9 3.667A1.333 1.333 0 1 1 9 1a1.333 1.333 0 0 1 0 2.667Zm-1.981 8.787-2.143 2.553-1.021-.856 1.984-2.364.497-1.454 1.194 1-.511 1.121Z" fill="currentColor"/></svg>